<svg width="90" height="90" viewBox="0 0 90 90" fill="none" xmlns="http://www.w3.org/2000/svg">
<path fill-rule="evenodd" clip-rule="evenodd" d="M90 45C90 50.9095 88.836 56.7611 86.5746 62.2208C84.3131 67.6804 80.9984 72.6412 76.8198 76.8198C72.6412 80.9984 67.6804 84.3131 62.2208 86.5746C56.7611 88.836 50.9095 90 45 90C39.0905 90 33.2389 88.836 27.7792 86.5746C22.3196 84.3131 17.3588 80.9984 13.1802 76.8198C9.00156 72.6412 5.68688 67.6804 3.42542 62.2208C1.16396 56.7611 -8.80582e-08 50.9095 0 45C1.77842e-07 33.0653 4.74106 21.6193 13.1802 13.1802C21.6193 4.74106 33.0653 0 45 0C56.9347 0 68.3807 4.74106 76.8198 13.1802C85.2589 21.6193 90 33.0653 90 45ZM10 45C10 54.2826 13.6875 63.185 20.2513 69.7487C26.815 76.3125 35.7174 80 45 80V45H80C80 35.7174 76.3125 26.815 69.7487 20.2513C63.185 13.6875 54.2826 10 45 10V45H10Z" fill="#477EFE"/>
</svg>
