<svg width="90" height="30" viewBox="0 0 90 30" fill="none" xmlns="http://www.w3.org/2000/svg">
<path d="M89.6442 6.68991H59.7001V0.922341C59.7006 0.844709 59.6858 0.767746 59.6564 0.695881C59.627 0.624016 59.5837 0.558669 59.529 0.5036C59.4743 0.448531 59.4092 0.404829 59.3375 0.375006C59.2659 0.345184 59.189 0.329832 59.1114 0.329834H30.8923C30.8147 0.329832 30.7378 0.345184 30.6661 0.375006C30.5944 0.404829 30.5294 0.448531 30.4746 0.5036C30.4199 0.558669 30.3766 0.624016 30.3473 0.695881C30.3179 0.767746 30.303 0.844709 30.3035 0.922341V6.68991H8.84202C8.51577 6.68991 8.11827 6.95241 7.95326 7.28242L0.0744205 22.7176C-0.0943315 23.0476 0.03317 23.3064 0.363174 23.3064H30.2998V29.0814C30.2998 29.4039 30.5623 29.6702 30.8885 29.6702H59.1076C59.4339 29.6702 59.6964 29.4077 59.6964 29.0814V23.3064H81.1579C81.4841 23.3064 81.8816 23.0438 82.0504 22.7176L89.9255 7.28242C90.0942 6.95616 89.9667 6.68991 89.6405 6.68991M80.2879 10.425L75.6228 19.5638H56.0026V25.9689H34.0123V19.5638H9.73078L14.3996 10.425H34.0198V4.02363H56.0101V10.425H80.2879Z" fill="#477EFE"/>
</svg>
