<svg width="90" height="34" viewBox="0 0 90 34" fill="none" xmlns="http://www.w3.org/2000/svg">
<path d="M45 2.885C22.02 2.885 3.39375 9.2375 3.39375 17.0075C3.39375 24.7775 22.02 31.1263 45 31.1263C67.9762 31.1263 86.6025 24.7775 86.6025 17.0075C86.6025 9.23375 67.9762 2.885 45 2.885V2.885ZM23.6325 26.285C21.1725 26.3037 19.0087 24.785 18.7575 22.1562C18.6147 20.7865 19.0101 19.4149 19.86 18.3312C20.5912 17.3787 21.8287 16.5875 22.875 16.3925C23.2125 16.3288 23.6737 16.37 23.865 16.595C24.1612 16.9438 24.075 17.3225 23.7788 17.4725C22.98 17.8813 22.0162 18.5787 21.54 19.535C21.3219 19.9405 21.2184 20.3978 21.2409 20.8577C21.2634 21.3176 21.4109 21.7627 21.6675 22.145C22.6537 23.6337 25.4062 23.675 27.9637 21.3013C28.5975 20.7163 29.1637 20.1612 29.7375 19.5012C30.8625 18.2112 31.2375 17.7387 32.7375 15.6612C32.7562 15.6387 32.76 15.6088 32.7525 15.5938C32.7413 15.5675 32.7187 15.5562 32.6775 15.5562C31.6762 15.5825 30.8025 15.8825 29.9587 16.5125C29.715 16.6925 29.3625 16.6662 29.2088 16.4337C29.0363 16.1712 29.16 15.8225 29.4412 15.6275C30.8025 14.6787 32.2913 14.51 33.8138 14.2513C33.8138 14.2513 33.9187 14.2588 34.005 14.1388C34.6312 13.34 35.1 12.62 35.7675 11.81C36.435 10.985 37.305 10.235 37.965 9.665C38.8875 8.87 39.48 8.60375 40.08 8.2775C40.2412 8.195 40.0613 8.09375 40.0125 8.09375C36.6525 7.46375 33.1613 6.64625 29.8238 7.88375C27.5138 8.74625 26.4975 10.5763 26.985 11.8025C27.3338 12.6688 28.4738 12.815 29.5463 12.29C30.4789 11.8275 31.2702 11.1229 31.8375 10.25C32.1637 9.7475 32.85 10.1075 32.4788 10.9813C31.5038 13.2725 29.64 15.095 27.3675 15.1737C25.4325 15.2337 24.1837 13.8125 24.1875 12.0575C24.195 8.5925 28.05 6.3125 32.1 5.975C36.9788 5.57 41.5988 6.87125 46.4438 7.45625C50.1525 7.90625 53.7113 7.9175 57.4388 7.05875C57.8813 6.965 58.1888 7.24625 58.1625 7.68875C58.125 8.33375 57.6262 8.9525 56.4 9.62375C55.0012 10.3887 53.5387 10.6213 52.0125 10.6363C48.3225 10.6663 44.8838 9.22625 41.325 8.45375C41.3325 8.6075 41.37 8.795 41.2387 8.8925C39.27 10.3475 37.4887 11.825 36.2962 13.895C36.255 13.9437 36.2775 13.9888 36.345 13.985C37.3838 13.9288 38.3138 13.9025 39.2813 13.8275C39.45 13.8125 39.4575 13.7712 39.4425 13.6475C39.3895 13.2641 39.43 12.8735 39.5606 12.5092C39.6912 12.1448 39.908 11.8175 40.1925 11.555C40.8375 10.9813 41.6438 10.9175 42.18 11.33C42.78 11.8025 42.7312 12.6537 42.3975 13.2912C42.2489 13.5712 42.0455 13.8184 41.7994 14.0181C41.5533 14.2178 41.2695 14.366 40.965 14.4538C40.965 14.4538 40.8525 14.4762 40.8675 14.5812C40.89 14.7425 41.6175 15.1475 41.6812 15.2562C41.745 15.3575 41.7112 15.5188 41.6025 15.6388C41.5593 15.6915 41.5049 15.7339 41.4433 15.7631C41.3817 15.7923 41.3144 15.8074 41.2462 15.8075C41.1225 15.8075 41.0475 15.7625 40.8862 15.6763C40.5003 15.4716 40.1567 15.1954 39.8738 14.8625C39.7838 14.7463 39.735 14.7425 39.5025 14.7538C38.4563 14.8175 36.825 14.975 35.7187 15.1137C35.4525 15.1437 35.4112 15.1962 35.3587 15.29C33.5962 18.1962 31.7138 21.3275 29.6475 23.4275C27.4275 25.6775 25.5863 26.27 23.6325 26.285V26.285ZM71.4375 12.1625C71.0962 12.755 64.5038 22.79 64.0875 23.825C63.9563 24.155 63.9375 24.4063 64.0725 24.59C64.4175 25.055 65.1862 24.7813 65.6662 24.4475C67.095 23.465 68.085 22.2725 69.18 21.23C69.2437 21.1813 69.3525 21.1625 69.4238 21.23C69.585 21.38 69.8213 21.5713 69.9863 21.7438C70.0009 21.7572 70.0128 21.7734 70.0211 21.7915C70.0294 21.8096 70.0341 21.8292 70.0348 21.8491C70.0355 21.8689 70.0322 21.8888 70.0252 21.9074C70.0181 21.926 70.0074 21.943 69.9938 21.9575C68.9919 23.2167 67.8552 24.3623 66.6037 25.3737C64.8412 26.7387 63.0825 27.0875 62.2088 26.2137C61.9006 25.8923 61.7149 25.473 61.6837 25.0287C61.6762 24.815 61.5675 24.8038 61.4663 24.9013C60.4238 25.9325 58.6162 27.0725 56.9737 26.2587C55.6012 25.5837 55.2825 23.9412 55.5375 22.5612C55.5413 22.5312 55.515 22.3363 55.3462 22.4488C55 22.7005 54.6217 22.9048 54.2212 23.0562C53.7907 23.2528 53.322 23.3515 52.8488 23.345C52.5084 23.3489 52.1731 23.2633 51.8763 23.0968C51.5795 22.9303 51.3316 22.6887 51.1575 22.3963C50.9362 21.9973 50.814 21.551 50.8012 21.095C50.7975 21.0538 50.7375 20.975 50.6775 21.0762C49.5525 22.79 48.5062 24.4475 47.3962 26.1875C47.3362 26.27 47.2838 26.3225 47.1713 26.3263L44.97 26.33C44.835 26.33 44.7713 26.225 44.8425 26.0938C45.2325 25.3438 47.37 22.2313 48.8175 19.5838C49.2187 18.8563 49.1362 18.4813 48.8887 18.32C48.5775 18.1175 47.9587 18.4212 47.4375 18.8187C46.0162 19.895 44.8238 21.575 44.2163 22.325C43.86 22.7638 43.5225 23.4162 42.5925 24.425C41.1262 26.0187 39.18 26.9337 37.3125 26.3C36.8192 26.1329 36.3745 25.8471 36.0175 25.4679C35.6605 25.0886 35.4021 24.6275 35.265 24.125C35.2088 23.93 35.1 23.8775 34.9913 24.005C34.6913 24.38 34.0725 24.9388 33.555 25.2875C33.4987 25.3288 33.36 25.4113 33.24 25.3513C33.0142 25.132 32.8222 24.8805 32.67 24.605C32.6474 24.555 32.641 24.4992 32.6518 24.4454C32.6625 24.3915 32.6899 24.3425 32.73 24.305C33.4687 23.6562 33.8738 23.2887 34.1963 22.88C34.4363 22.58 34.62 22.2425 34.8337 21.6988C35.2837 20.5663 36.3075 18.4513 38.3513 17.3563C39.1063 16.9287 39.9362 16.65 40.7962 16.535C41.1712 16.4975 41.4825 16.5425 41.595 16.835C41.6363 16.9588 41.7412 17.2288 41.805 17.4275C41.8462 17.5475 41.8162 17.6413 41.6737 17.6938C40.4737 18.1513 39.2625 18.86 38.43 19.9813C37.4813 21.2488 37.2262 22.7787 37.86 23.6562C38.3212 24.2937 39.0675 24.4062 39.7875 24.1775C40.875 23.8325 41.805 22.8163 42.285 21.6913C42.8025 20.4575 42.885 19.0025 42.5025 17.72C42.4425 17.4988 42.4988 17.33 42.6413 17.21C42.93 16.9737 43.3313 16.79 43.4475 16.73C43.562 16.6688 43.6951 16.6521 43.8212 16.6833C43.9472 16.7144 44.0572 16.7912 44.13 16.8987C44.5275 17.4875 44.7412 18.3162 44.7675 19.175C44.79 19.3587 44.865 19.3625 44.955 19.2687C45.6675 18.5112 46.3275 17.7012 47.085 17.0937C47.7787 16.5425 48.6675 16.0925 49.4963 16.1112C50.5688 16.1337 51.1013 16.8613 51.0675 18.1588C51.0638 18.3238 51.18 18.3087 51.2587 18.2C51.5073 17.8266 51.8107 17.4929 52.1588 17.21C52.9013 16.5987 53.6588 16.325 54.45 16.3775C55.425 16.4525 56.205 17.3413 56.0437 18.3538C56.0049 18.674 55.8886 18.9799 55.705 19.2452C55.5214 19.5105 55.276 19.727 54.99 19.8763C54.7495 20.0043 54.4761 20.0571 54.2052 20.0277C53.9343 19.9982 53.6786 19.888 53.4712 19.7112C53.3105 19.5593 53.1927 19.3677 53.1295 19.1557C53.0663 18.9438 53.06 18.7189 53.1113 18.5038C53.13 18.41 53.01 18.3237 52.9088 18.4287C51.9563 19.4187 51.885 20.7012 52.5075 21.2787C53.1937 21.9162 54.225 21.4887 54.975 20.9975C56.3475 20.1012 57.4125 18.8863 58.6462 17.9488C59.4637 17.3263 60.3975 16.7713 61.4438 16.6325C62.0185 16.5446 62.6063 16.612 63.1463 16.8275C63.8963 17.1313 64.3687 17.765 64.4287 18.3125C64.4437 18.4738 64.5637 18.4925 64.665 18.35C65.2575 17.4275 68.4338 12.6613 68.6963 12.1625C68.7713 12.0088 68.8613 11.9863 69.03 11.9863H71.3025C71.4337 11.9863 71.4937 12.0613 71.4375 12.1625V12.1625ZM62.7375 20.4275C62.7142 20.4741 62.7102 20.528 62.7262 20.5775C62.7375 20.6525 62.8388 20.7275 62.9363 20.765C62.9738 20.7762 62.9925 20.8025 62.9513 20.885C62.67 21.485 62.415 21.83 62.0625 22.3513C61.751 22.8118 61.3717 23.2227 60.9375 23.57C60.27 24.1212 59.3475 24.7212 58.5825 24.32C58.245 24.1437 58.095 23.6675 58.1062 23.285C58.1212 22.205 58.6013 21.095 59.49 20.0037C60.57 18.6725 61.7663 17.9825 62.55 18.3612C63.36 18.7475 63.105 19.6888 62.7375 20.4238V20.4275ZM40.4288 13.3737C40.4006 13.1342 40.4309 12.8913 40.5171 12.666C40.6033 12.4406 40.7428 12.2396 40.9238 12.08C41.1375 11.8925 41.4225 11.8475 41.5988 11.9975C41.7938 12.1663 41.7 12.5862 41.5013 12.875C41.2854 13.2001 40.959 13.436 40.5825 13.5387C40.515 13.5537 40.455 13.5237 40.4288 13.3737V13.3737ZM45 0.125C20.025 0.125 0 7.61375 0 17C0 26.33 20.1862 33.875 45 33.875C69.8138 33.875 90 26.3 90 17C90 7.7 69.8138 0.125 45 0.125ZM45 32.405C21.1838 32.405 1.875 25.5125 1.875 17.0075C1.875 8.49875 21.1875 1.60625 45 1.60625C68.8125 1.60625 88.1175 8.49875 88.1175 17.0075C88.1175 25.5125 68.8125 32.405 45 32.405V32.405Z" fill="#477EFE"/>
</svg>
