<svg width="90" height="74" viewBox="0 0 90 74" fill="none" xmlns="http://www.w3.org/2000/svg">
<path d="M89.6348 17.7641C88.3973 5.69653 80.3722 3.15775 73.3071 1.99899C69.7596 1.39898 63.4445 0.873979 59.372 0.723978C55.8245 0.498975 47.4919 0.386475 44.9906 0.386475C42.5268 0.386475 34.153 0.498975 30.6092 0.723978C26.5742 0.873979 20.2216 1.39898 16.6741 1.99899C9.61276 3.19525 1.57643 5.72653 0.346414 17.7641C0.0464106 21.0529 -0.0285901 25.3505 0.00891025 29.9443C0.121411 37.5606 0.758918 42.7169 1.13392 46.3057C1.39642 48.7695 2.40143 56.1308 3.7102 59.9408C5.50272 65.1721 7.14523 66.7021 9.05025 68.2734C12.564 71.1122 18.3166 72.0084 19.5129 72.2334C26.0117 73.3959 39.1631 73.6134 44.9531 73.6134C50.7432 73.6134 63.8908 73.4259 70.3934 72.2334C71.6271 72.0084 77.3797 71.1459 80.856 68.2734C82.761 66.7021 84.4035 65.1721 86.196 59.9408C87.5085 56.1308 88.5511 48.7695 88.8136 46.3057C89.1886 42.7169 89.8598 37.5606 89.9348 29.9443C90.0848 25.3505 89.9723 21.0529 89.6348 17.7641M85.2248 38.0143C84.5123 47.6519 83.6572 53.4045 82.4235 57.5895C81.336 61.2496 80.0347 63.6759 78.0547 65.4346C74.8034 68.3859 70.3184 69.0197 67.7046 69.3947C62.027 70.2572 52.4982 70.5197 44.9906 70.5197C37.483 70.5197 27.9542 70.2197 22.2766 69.3947C19.6629 69.0197 15.1778 68.3859 11.9265 65.4346C9.98401 63.6759 8.6415 61.2121 7.59524 57.5858C6.36147 53.442 5.50272 47.6482 4.79396 38.0106C4.38145 32.2243 4.45645 22.8079 5.09396 17.7604C6.06147 10.2191 9.80026 6.44278 17.7953 5.02527C21.5304 4.35026 26.5704 3.86276 31.318 3.63776C35.128 3.37525 41.4431 3.26275 44.9531 3.30025C48.4631 3.26275 54.7782 3.41275 58.5882 3.63776C63.3695 3.86276 68.3758 4.35026 72.1109 5.02527C80.1435 6.44278 83.8823 10.2566 84.816 17.7641C85.5623 22.8079 85.6748 32.2243 85.2285 38.0143M65.7208 6.55154C63.6658 15.7841 62.8445 20.0067 61.1608 26.6892C59.5558 33.1205 58.2845 39.0569 56.1545 41.9331C53.9532 44.8469 51.0357 45.4844 49.0557 45.7057C48.0094 45.8182 47.2631 45.8557 45.0581 45.8932C43.7117 45.9187 42.3651 45.8561 41.0268 45.7057C39.0468 45.4807 36.0955 44.8469 33.9318 41.9331C31.7642 39.0569 30.5305 33.1205 28.9255 26.693C27.1629 20.0442 26.3829 15.7804 24.2904 6.55529C24.2904 6.55529 22.2354 6.63029 21.3016 6.70529C20.0679 6.78029 19.0966 6.89279 18.0503 7.04279C19.3366 27.188 20.6454 48.5895 22.2729 67.5309C25.2467 67.9049 28.2386 68.1165 31.2355 68.1646C32.473 63.4171 34.0405 56.8395 35.7618 54.0383C37.1793 51.7582 39.3843 51.4995 40.6181 51.3495C42.5606 51.087 44.2031 51.0495 44.9869 51.0495C45.7369 51.012 47.3756 51.0495 49.3557 51.3495C50.5932 51.537 52.7944 51.762 54.212 54.0383C55.9745 56.8395 57.5007 63.4133 58.7345 68.1609C58.7345 68.1609 60.077 68.1234 63.1033 67.9734C64.6408 67.9059 66.1783 67.7559 67.7008 67.5234C69.4184 47.3107 70.6446 27.293 71.9234 7.04279C70.8734 6.89279 69.9059 6.78029 68.6721 6.70529C67.8096 6.63029 65.7208 6.55529 65.7208 6.55529V6.55154Z" fill="#477EFE"/>
</svg>
