<svg width="90" height="48" viewBox="0 0 90 48" fill="none" xmlns="http://www.w3.org/2000/svg">
<path d="M44.9962 47.0438C69.8475 47.0438 90 36.7276 90 24.0038C90 11.2726 69.8475 0.956299 44.9962 0.956299C20.1525 0.956299 0 11.2726 0 24.0038C0 36.7276 20.1525 47.0438 44.9962 47.0438ZM53.4712 35.7375C52.7212 37.4775 51.4275 41.1901 48.4613 42.6751C47.5613 43.1213 46.4475 43.3276 45.4613 43.3688H45C36.6975 43.3688 28.965 42.2063 22.4925 40.2413L22.245 40.1476C21.645 39.9488 21.345 39.6713 21.345 39.3301C21.345 39.0338 21.5062 38.8051 21.7162 38.5988L22.125 38.2351C23.625 36.9901 28.1175 33.7351 36.5925 30.4838C39.5663 29.3551 43.29 27.9376 47.1863 27.1088C49.4663 26.6363 57.9413 25.335 53.4675 35.7375M76.2 12.51C76.3612 12.2325 76.575 11.9963 76.9613 11.9775C77.1713 11.955 77.4562 12.0038 77.8912 12.2775C83.175 15.5288 86.31 19.5975 86.31 23.9963C86.31 31.9388 76.095 38.7713 61.485 41.7526C60.555 41.9401 59.925 41.9326 59.7188 41.6963C59.5688 41.5538 59.5313 41.2988 59.7188 40.9838C59.8285 40.7888 59.9592 40.6065 60.1087 40.4401C68.0587 31.0651 74.1188 17.2313 75.84 13.2413C75.9713 12.9638 76.095 12.69 76.2 12.51ZM36.6638 12.2138C37.4138 10.4776 38.7075 6.7613 41.67 5.2913C42.57 4.8413 43.6837 4.6238 44.67 4.59755C44.8987 4.59005 45.06 4.59755 45.12 4.59755C53.4337 4.59755 61.155 5.74505 67.635 7.7213C67.6837 7.7438 67.8337 7.7963 67.8825 7.81505C68.4825 8.01755 68.7825 8.2913 68.7825 8.63255C68.7825 8.9288 68.625 9.1463 68.415 9.3563C68.2822 9.48157 68.1446 9.60166 68.0025 9.7163C66.5138 10.9725 62.01 14.22 53.535 17.4713C50.5538 18.6113 46.8375 20.0175 42.9525 20.8425C40.665 21.3301 32.19 22.62 36.6638 12.2175M28.5 6.24005C29.4375 6.06005 30.0563 6.06005 30.285 6.2963C30.4163 6.4463 30.4538 6.6938 30.2775 7.0088C30.1654 7.19875 30.0348 7.37712 29.8875 7.5413C21.9375 16.9276 15.8738 30.75 14.145 34.7513C14.0365 35.0006 13.9164 35.2446 13.785 35.4826C13.635 35.7563 13.4138 35.9926 13.035 36.0151C12.825 36.0338 12.5287 35.9738 12.0937 35.7113C6.81375 32.46 3.675 28.395 3.675 23.9963C3.675 16.0538 13.89 9.2213 28.5 6.24005Z" fill="#477EFE"/>
</svg>
