<svg width="747" height="237" viewBox="0 0 747 237" fill="none" xmlns="http://www.w3.org/2000/svg">
<path d="M77.888 0.127998H16.576L32.704 15.232L0.32 96H31.552L46.4 78.72L77.888 0.127998ZM117.056 0.127998L37.44 96H79.68L159.808 0.127998H117.056ZM266.665 65.152L284.585 19.456L153.385 19.584L147.625 34.816H239.273L233.385 50.048H180.777L185.257 38.784H146.089L123.945 96H162.985L174.761 65.408H193.961L221.737 96H262.441L233.641 65.408L266.665 65.152ZM291.241 34.432H382.761L366.761 76.544H405.929L427.689 18.944H297.257L291.241 34.432ZM313.001 80.64L329.001 38.528H289.833L267.945 96H398.633L404.521 80.64H313.001ZM435.616 34.432H527.136L511.136 76.544H550.304L572.064 18.944H441.632L435.616 34.432ZM457.376 80.64L473.376 38.528H434.208L412.32 96H543.008L548.896 80.64H457.376ZM690.327 18.944L646.039 72.96L633.623 18.944H629.015L615.703 54.272L624.791 96H659.095L696.343 50.816L678.551 96H717.719L746.391 18.944H690.327ZM624.791 18.944H586.903L556.695 96H595.991L624.791 18.944ZM77.888 141.128H16.576L32.704 156.232L0.32 237H31.552L46.4 219.72L77.888 141.128ZM117.056 141.128L37.44 237H79.68L159.808 141.128H117.056ZM266.665 206.152L284.585 160.456L153.385 160.584L147.625 175.816H239.273L233.385 191.048H180.777L185.257 179.784H146.089L123.945 237H162.985L174.761 206.408H193.961L221.737 237H262.441L233.641 206.408L266.665 206.152ZM291.241 175.432H382.761L366.761 217.544H405.929L427.689 159.944H297.257L291.241 175.432ZM313.001 221.64L329.001 179.528H289.833L267.945 237H398.633L404.521 221.64H313.001ZM435.616 175.432H527.136L511.136 217.544H550.304L572.064 159.944H441.632L435.616 175.432ZM457.376 221.64L473.376 179.528H434.208L412.32 237H543.008L548.896 221.64H457.376ZM690.327 159.944L646.039 213.96L633.623 159.944H629.015L615.703 195.272L624.791 237H659.095L696.343 191.816L678.551 237H717.719L746.391 159.944H690.327ZM624.791 159.944H586.903L556.695 237H595.991L624.791 159.944Z" fill="#477EFE"/>
</svg>
