<svg width="90" height="90" viewBox="0 0 90 90" fill="none" xmlns="http://www.w3.org/2000/svg">
<path d="M45 0C69.8363 0 90 20.1637 90 45C90 69.8363 69.8363 90 45 90C20.1637 90 0 69.8363 0 45C0 20.1637 20.1637 0 45 0ZM12.1687 65.7712C15.6716 71.3098 20.5189 75.8719 26.2593 79.0329C31.9998 82.194 38.4468 83.8511 45 83.85C58.8037 83.85 70.9387 76.635 77.8312 65.7712L45 53.2613L12.1687 65.7712ZM52.155 40.8675L79.4062 63.0487C82.3338 57.4836 83.8591 51.2882 83.85 45C83.85 24.0862 67.2862 7.00875 46.575 6.18L52.155 40.8675ZM43.425 6.18C22.7138 7.00875 6.15 24.0862 6.15 45C6.15 51.5137 7.755 57.6525 10.5938 63.0487L37.845 40.8675L43.425 6.18Z" fill="#477EFE"/>
</svg>
