<svg width="90" height="76" viewBox="0 0 90 76" fill="none" xmlns="http://www.w3.org/2000/svg">
<path d="M77.16 49.0812L77.1225 49.1862C72.4463 62.8475 59.5538 72.0087 45.0188 72.0087C30.4838 72.0087 17.5688 62.8287 12.9113 49.1712L12.8738 49.0625H2.6625V50.2962L6.91125 50.795C9.53625 51.095 10.0875 52.2575 10.8038 53.72L10.9837 54.08C17.1262 67.1862 30.4987 75.65 45.0337 75.65C59.5725 75.65 72.945 67.1862 79.0875 54.0987L79.2675 53.7425C79.98 52.28 80.535 51.1175 83.16 50.8137L87.4125 50.3112V49.0812H77.16ZM12.9113 26.795C17.5875 13.1337 30.4838 3.95747 45.0188 3.95747C59.5538 3.95747 72.465 13.1337 77.1262 26.795L77.1637 26.9H87.3938V25.67L83.1412 25.1712C80.5162 24.8675 79.965 23.7087 79.2487 22.2425L79.0725 21.8825C72.93 8.81373 59.55 0.349976 45.0188 0.349976C30.465 0.349976 17.1075 8.81372 10.965 21.92L10.785 22.2762C10.0725 23.7387 9.5175 24.9012 6.8925 25.205L2.64375 25.7037V26.9375H12.8587L12.9113 26.795ZM64.8938 32.7425L58.3575 43.2237H61.1775L62.34 41.3487H69.9637L71.1262 43.2237H73.9275L67.3913 32.7425H64.8938ZM68.7675 39.365H63.5363L66.1612 35.15L68.7675 39.365ZM79.305 35.3675L87.0712 43.2237H90V32.7425H87.6975V40.5612L79.965 32.7425H76.9837V43.2237H79.305V35.3675ZM0 43.2237H2.32125V35.3675L10.1062 43.2237H13.035V32.7425H10.7138V40.5612L2.98125 32.7425H0V43.2237ZM18.1612 32.7425H20.4825V43.2237H18.1575L18.1612 32.7425ZM34.9838 41.0075C34.9088 41.0262 34.6237 41.0262 34.5187 41.0262H25.2863V43.1712H34.6613C34.7325 43.1712 35.2875 43.1712 35.3925 43.1525C37.305 42.9725 38.1787 41.3825 38.1787 39.9912C38.1787 38.5625 37.2675 37.0287 35.535 36.8675C35.1975 36.83 34.9125 36.83 34.785 36.83H28.6613C28.4338 36.8373 28.2061 36.8197 27.9825 36.7775C27.4987 36.65 27.3225 36.2225 27.3225 35.8662C27.3225 35.5437 27.4988 35.1162 27.9975 34.9737C28.2094 34.9289 28.4261 34.9113 28.6425 34.9212H37.4812V32.8137H28.5C28.125 32.8137 27.84 32.8287 27.6075 32.8662C26.8759 32.9563 26.204 33.3152 25.7223 33.8731C25.2406 34.431 24.9836 35.1481 25.0012 35.885C25.0012 37.1712 25.8038 38.6712 27.57 38.9225C27.8925 38.9562 28.3388 38.9562 28.5375 38.9562H34.5C34.6087 38.9562 34.875 38.9562 34.9275 38.975C35.6063 39.0612 35.8388 39.5637 35.8388 40.01C35.8445 40.2525 35.7603 40.4885 35.6025 40.6726C35.4446 40.8568 35.2243 40.9761 34.9838 41.0075V41.0075ZM52.4475 41.0075C52.3725 41.0262 52.0875 41.0262 51.9638 41.0262H42.75V43.1712H52.125C52.1962 43.1712 52.7513 43.1712 52.8563 43.1525C54.7688 42.9725 55.6425 41.3825 55.6425 39.9912C55.6425 38.5625 54.7313 37.0287 52.9988 36.8675C52.6613 36.83 52.3762 36.83 52.2487 36.83H46.125C45.8975 36.8373 45.6699 36.8197 45.4463 36.7775C44.9625 36.65 44.7862 36.2225 44.7862 35.8662C44.7862 35.5437 44.9625 35.1162 45.4613 34.9737C45.6731 34.9289 45.8899 34.9113 46.1063 34.9212H54.945V32.8137H45.9637C45.5887 32.8137 45.3038 32.8287 45.0713 32.8662C44.3397 32.9563 43.6678 33.3152 43.1861 33.8731C42.7044 34.431 42.4474 35.1481 42.465 35.885C42.465 37.1712 43.2675 38.6712 45.0375 38.9225C45.3563 38.9562 45.8025 38.9562 46.0013 38.9562H51.9638C52.0725 38.9562 52.3387 38.9562 52.3912 38.975C53.07 39.0612 53.3025 39.5637 53.3025 40.01C53.3042 40.2514 53.2186 40.4853 53.0615 40.6686C52.9044 40.8519 52.6863 40.9722 52.4475 41.0075V41.0075Z" fill="#477EFE"/>
</svg>
