<svg width="90" height="62" viewBox="0 0 90 62" fill="none" xmlns="http://www.w3.org/2000/svg">
<path d="M45 0.430054C19.5863 0.430054 0 13.3676 0 31.0001C0 48.6326 19.59 61.5701 45 61.5701C70.41 61.5701 90 48.6326 90 31.0001C90 13.3676 70.4137 0.430054 45 0.430054V0.430054ZM72.5025 14.8263C72.5025 18.8763 66.0337 22.0001 55.6725 23.2488C54.6975 13.5738 51.9038 7.20255 48.3113 4.82505C59.3663 5.51505 72.4988 9.4263 72.4988 14.8263H72.5025ZM45 47.5038C41.4 47.5038 38.4525 41.8788 38.22 31.0451C40.3838 31.2213 42.645 31.3151 45 31.3151C47.355 31.3151 49.6125 31.2213 51.7763 31.0451C51.5475 41.8826 48.6 47.5038 45 47.5038ZM45 23.8488C42.7875 23.8488 40.6688 23.7776 38.6625 23.6463C39.6413 17.1663 42.1125 11.8338 45 11.8338C47.8875 11.8338 50.355 17.1663 51.3338 23.6463C49.3275 23.7738 47.2125 23.8488 45 23.8488ZM41.6925 4.81755C38.1075 7.1913 35.295 13.5663 34.3275 23.2488C23.9663 22.0001 17.4937 18.8763 17.4937 14.8263C17.4937 9.4263 30.6338 5.4888 41.6925 4.81755V4.81755ZM7.63875 29.8001C7.62928 25.5238 9.00841 21.3601 11.5688 17.9351C12.5813 23.7363 21.0263 28.7388 33.9638 30.5726V31.0001C33.9638 45.1451 37.26 54.2613 41.79 57.1376C22.6388 55.9338 7.63875 44.0876 7.63875 29.8001V29.8001ZM48.225 57.1376C52.7512 54.2613 56.0512 45.1451 56.0512 31.0001V30.5688C68.9775 28.7388 77.4413 23.7213 78.4463 17.9313C81.0099 21.3563 82.3906 25.5219 82.38 29.8001C82.365 44.0876 67.35 55.9338 48.2213 57.1376H48.225Z" fill="#477EFE"/>
</svg>
